<svg width="24" xmlns="http://www.w3.org/2000/svg" height="24" id="screenshot-c1d43a0a-1eea-8081-8006-c09ed410467b" viewBox="1369 343 24 24" xmlns:xlink="http://www.w3.org/1999/xlink" fill="none" version="1.1"><g id="shape-c1d43a0a-1eea-8081-8006-c09ed410467b"><g class="fills" id="fills-c1d43a0a-1eea-8081-8006-c09ed410467b"><path d="M1392.68017578125,354.2281494140625C1392.885009765625,354.4327392578125,1393,354.7103271484375,1393,354.9998779296875C1393,355.2894287109375,1392.885009765625,355.5670166015625,1392.68017578125,355.7716064453125L1381.771728515625,366.6800537109375C1381.567138671875,366.8848876953125,1381.289306640625,367,1381,367C1380.71044921875,367,1380.4326171875,366.8848876953125,1380.22802734375,366.6800537109375L1369.319580078125,355.7716064453125C1368.8935546875,355.345458984375,1368.8935546875,354.6544189453125,1369.319580078125,354.2281494140625C1369.745849609375,353.8018798828125,1370.43701171875,353.8018798828125,1370.86328125,354.2281494140625L1381,364.3660888671875L1391.136474609375,354.2281494140625C1391.341064453125,354.0233154296875,1391.618896484375,353.908203125,1391.908203125,353.908203125C1392.19775390625,353.908203125,1392.4755859375,354.0233154296875,1392.68017578125,354.2281494140625ZM1380.22802734375,355.7716064453125C1380.4326171875,355.9764404296875,1380.71044921875,356.091552734375,1381,356.091552734375C1381.289306640625,356.091552734375,1381.567138671875,355.9764404296875,1381.771728515625,355.7716064453125L1392.68017578125,344.86328125C1392.955810546875,344.5875244140625,1393.0634765625,344.1856689453125,1392.962646484375,343.8089599609375C1392.861572265625,343.432373046875,1392.5673828125,343.13818359375,1392.19091796875,343.0372314453125C1391.814208984375,342.936279296875,1391.412353515625,343.0439453125,1391.136474609375,343.3197021484375L1381,353.457763671875L1370.86328125,343.3197021484375C1370.43701171875,342.8934326171875,1369.745849609375,342.8934326171875,1369.319580078125,343.3197021484375C1368.8935546875,343.7459716796875,1368.8935546875,344.43701171875,1369.319580078125,344.86328125Z" style="fill: rgb(255, 255, 255); fill-opacity: 1;"/></g></g></svg>