<svg width="160" xmlns="http://www.w3.org/2000/svg" height="160" id="screenshot-b824000b-6e5a-8058-8006-c4c41e8da7b2" viewBox="0 -0 160 160" xmlns:xlink="http://www.w3.org/1999/xlink" fill="none" version="1.1"><g id="shape-b824000b-6e5a-8058-8006-c4c41e8da7b2" rx="0" ry="0" style="fill: rgb(0, 0, 0);"><g id="shape-b824000b-6e5a-8058-8006-c4c41e8fd0c1"><g class="fills" id="fills-b824000b-6e5a-8058-8006-c4c41e8fd0c1"><path d="M118.1429443359375,159.591796875C117.4044189453125,158.9681396484375,117.3323974609375,158.22119140625,117.3277587890625,151.1318359375L117.3236083984375,144.49755859375L59.502197265625,144.494873046875C13.634033203125,144.492919921875,1.5867919921875,144.4462890625,1.2259521484375,144.269775390625C-0.40869140625,143.470458984375,-0.40869140625,135.194580078125,1.2259521484375,134.395263671875C1.583251953125,134.220458984375,8.0804443359375,134.16552734375,31.524169921875,134.1390380859375C47.93798828125,134.120361328125,61.0135498046875,134.0743408203125,60.5809326171875,134.0364990234375C59.9150390625,133.978271484375,59.828369140625,133.9278564453125,60.0155029296875,133.7071533203125C60.3365478515625,133.3284912109375,60.210205078125,133.2808837890625,58.61962890625,133.18017578125C57.8289794921875,133.130126953125,56.1175537109375,132.9674072265625,54.8165283203125,132.8187255859375C51.0789794921875,132.3916015625,36.9486083984375,131.8201904296875,24.3363037109375,131.5859375C2.0596923828125,131.172607421875,1.1749267578125,130.959228515625,0.3270263671875,125.796630859375C-0.4261474609375,121.2115478515625,0.3194580078125,119.7623291015625,4.683349609375,117.32861328125C7.2078857421875,115.9208984375,16.154052734375,110.7796630859375,23.88134765625,106.2960205078125C29.5382080078125,103.013671875,34.5255126953125,100.230712890625,35.0341796875,100.07275390625C35.578857421875,99.903564453125,35.5418701171875,99.7763671875,34.8045654296875,99.28515625C32.9635009765625,98.0579833984375,31.74462890625,95.6744384765625,31.6494140625,93.1148681640625C31.5836181640625,91.3472900390625,31.670654296875,90.185302734375,33.0767822265625,74.057861328125C33.478271484375,69.453857421875,34.090576171875,62.375,34.4376220703125,58.3272705078125C35.4659423828125,46.3331298828125,35.76513671875,43.6263427734375,36.20849609375,42.302490234375C37.3231201171875,38.9739990234375,40.1654052734375,36.78564453125,43.8939208984375,36.38525390625C47.062744140625,36.0447998046875,120.19140625,36.0880126953125,121.554443359375,36.4310302734375C126.2635498046875,37.6160888671875,128.6058349609375,40.6417236328125,128.6058349609375,45.5396728515625C128.6058349609375,47.77294921875,128.510498046875,49.0599365234375,127.4356689453125,61.3233642578125C127.0880126953125,65.290771484375,126.5960693359375,70.9410400390625,126.3424072265625,73.879638671875C126.0888671875,76.818359375,125.840087890625,79.5433349609375,125.78955078125,79.9351806640625C125.739013671875,80.3270263671875,125.4503173828125,83.6129150390625,125.1480712890625,87.2374267578125C124.4544677734375,95.5531005859375,124.10791015625,96.7408447265625,121.723388671875,98.97509765625L120.9814453125,99.6702880859375L121.700927734375,100.470458984375C122.9300537109375,101.837158203125,123.605224609375,104.907470703125,123.0819091796875,106.7498779296875C122.909423828125,107.35693359375,122.8193359375,107.9034423828125,122.881591796875,107.9644775390625C122.94384765625,108.0255126953125,130.7059326171875,108.1171875,140.130615234375,108.168212890625C161.87255859375,108.2857666015625,159.82861328125,107.642578125,159.9332275390625,114.400634765625C160.0096435546875,119.3424072265625,161.26513671875,117.8087158203125,148.4349365234375,128.445068359375C127.6688232421875,145.66015625,129.77392578125,144.10986328125,126.7484130859375,144.416015625L125.7099609375,144.521240234375L125.6566162109375,151.5889892578125C125.5888671875,160.5731201171875,125.8955078125,159.9925537109375,121.218994140625,159.9925537109375C118.7833251953125,159.9925537109375,118.5875244140625,159.9669189453125,118.1431884765625,159.5916748046875ZM124.8912353515625,159.2255859375L125.3302001953125,158.7259521484375L125.3302001953125,151.633544921875C125.3302001953125,143.5068359375,125.1385498046875,144.236572265625,127.3138427734375,144.0802001953125C129.3447265625,143.9342041015625,129.2900390625,143.9683837890625,134.9222412109375,139.3326416015625C145.97900390625,130.2320556640625,158.575439453125,119.74365234375,159.0858154296875,119.2130126953125L159.6318359375,118.6451416015625L159.5792236328125,114.5179443359375C159.521240234375,109.9583740234375,159.4505615234375,109.6070556640625,158.4730224609375,109.01220703125L157.8121337890625,108.60986328125L140.8887939453125,108.4969482421875C125.0390625,108.3909912109375,122.418701171875,108.318359375,122.418701171875,107.98486328125C122.418701171875,107.9117431640625,122.54150390625,107.564208984375,122.691650390625,107.21240234375C123.44189453125,105.4549560546875,122.6922607421875,101.683837890625,121.343017578125,100.42822265625C120.61669921875,99.75244140625,120.61181640625,99.7734375,121.7659912109375,98.643798828125C123.9068603515625,96.5484619140625,124.2113037109375,95.4598388671875,124.8817138671875,87.504638671875C125.1334228515625,84.516845703125,125.498291015625,80.3092041015625,125.6925048828125,78.154296875C128.6702880859375,45.1083984375,128.737548828125,44.00732421875,127.9052734375,41.914306640625C126.693603515625,38.8670654296875,124.16259765625,37.0372314453125,120.4869384765625,36.5511474609375C118.4666748046875,36.2840576171875,44.368896484375,36.474609375,42.845458984375,36.7508544921875C40.4774169921875,37.1802978515625,38.053466796875,38.9525146484375,36.9688720703125,41.04736328125C35.968017578125,42.9803466796875,36.19287109375,40.8751220703125,32.87255859375,79.4010009765625C31.442138671875,95.9989013671875,31.486572265625,96.43115234375,34.8936767578125,99.067138671875C35.927734375,99.8670654296875,35.9547119140625,99.9822998046875,35.1712646484375,100.25048828125C34.4886474609375,100.484130859375,30.504638671875,102.7039794921875,24.1541748046875,106.3890380859375C17.29345703125,110.3699951171875,7.276611328125,116.133544921875,5.1380615234375,117.3304443359375C4.1373291015625,117.8905029296875,2.927001953125,118.5919189453125,2.448486328125,118.8890380859375C-0.81689453125,120.9166259765625,-0.1849365234375,128.4075927734375,3.389892578125,130.0482177734375L4.4102783203125,130.5164794921875L39.6217041015625,130.6295166015625C76.2686767578125,130.747314453125,85.890625,130.8544921875,85.9940185546875,131.1466064453125C86.02734375,131.240966796875,86.6005859375,131.3184814453125,87.267822265625,131.3189697265625C87.93505859375,131.319580078125,88.806884765625,131.4085693359375,89.205322265625,131.516845703125L89.9295654296875,131.713623046875L89.412353515625,132.1171875C89.1279296875,132.3392333984375,88.568115234375,132.62646484375,88.1683349609375,132.755615234375C87.7685546875,132.884765625,87.3995361328125,133.097412109375,87.3482666015625,133.2281494140625C87.296875,133.3590087890625,87.03955078125,133.5804443359375,86.776123046875,133.7205810546875L86.29736328125,133.9752197265625L86.7523193359375,134.0130615234375C89.8702392578125,134.2724609375,80.0543212890625,134.367919921875,36.2747802734375,134.50390625L1.173828125,134.6129150390625L0.7904052734375,135.114990234375C0.0623779296875,136.068359375,0.130859375,142.9761962890625,0.8759765625,143.759033203125L1.2398681640625,144.141357421875L59.2452392578125,144.141357421875C104.117919921875,144.141357421875,117.300048828125,144.1898193359375,117.468994140625,144.3551025390625C117.6314697265625,144.51416015625,117.6873779296875,146.3726806640625,117.6873779296875,151.61767578125C117.6873779296875,160.5084228515625,117.3511962890625,159.8343505859375,121.752197265625,159.766845703125L124.4522705078125,159.725341796875ZM77.287841796875,120.933837890625C77.2388916015625,120.8897705078125,61.7630615234375,120.7960205078125,42.897216796875,120.7255859375C24.03125,120.6551513671875,8.5545654296875,120.5582275390625,8.5045166015625,120.51025390625C8.3558349609375,120.3675537109375,9.1461181640625,119.8160400390625,11.4827880859375,118.4310302734375C13.52392578125,117.2213134765625,17.7161865234375,114.7325439453125,30.97802734375,106.8570556640625C37.0491943359375,103.2518310546875,36.702392578125,103.364013671875,41.8052978515625,103.354248046875C43.8570556640625,103.35009765625,47.8695068359375,103.2734375,50.721923828125,103.18359375C65.3900146484375,102.7215576171875,117.064697265625,102.768798828125,116.9093017578125,103.2440185546875C116.8731689453125,103.3546142578125,115.82568359375,104.2738037109375,114.5814208984375,105.287109375C113.3372802734375,106.30029296875,110.7242431640625,108.4642333984375,108.77490234375,110.0958251953125C101.09423828125,116.5245361328125,96.4627685546875,120.3157958984375,95.9417724609375,120.6005859375C95.4228515625,120.8841552734375,77.5867919921875,121.202880859375,77.287841796875,120.933837890625ZM38.4478759765625,113.625244140625C40.1927490234375,111.6485595703125,39.7364501953125,111.1920166015625,36.0174560546875,111.193359375C32.5267333984375,111.1947021484375,32.041259765625,111.311279296875,31.0794677734375,112.3807373046875C29.5042724609375,114.1322021484375,29.97705078125,114.4122314453125,34.4111328125,114.35400390625L37.8443603515625,114.30908203125ZM48.5401611328125,114.1300048828125C49.5103759765625,113.6390380859375,50.2933349609375,111.9127197265625,49.775634765625,111.4061279296875C49.4942626953125,111.130615234375,43.869384765625,111.110595703125,43.136474609375,111.3822021484375C42.3221435546875,111.6842041015625,41.077392578125,113.1185302734375,41.077392578125,113.7550048828125C41.077392578125,114.4461669921875,47.2979736328125,114.7586669921875,48.5401611328125,114.1300048828125ZM59.2686767578125,114.1341552734375C60.0054931640625,113.76123046875,60.83935546875,112.0806884765625,60.550048828125,111.5517578125C60.205078125,110.9208984375,54.0750732421875,111.070068359375,53.3568115234375,111.726806640625C52.2435302734375,112.744873046875,51.823974609375,113.6705322265625,52.2755126953125,114.1123046875C52.688720703125,114.5167236328125,58.47705078125,114.5347900390625,59.2686767578125,114.1341552734375ZM69.6441650390625,114.0863037109375C70.677001953125,113.5792236328125,71.4337158203125,111.94384765625,70.8843994140625,111.4061279296875C69.3927001953125,109.9462890625,62.550048828125,111.762939453125,62.550048828125,113.6190185546875C62.550048828125,114.4659423828125,68.1234130859375,114.8331298828125,69.6441650390625,114.0863037109375ZM80.5762939453125,113.999267578125C81.611083984375,113.310546875,82.1468505859375,111.7225341796875,81.46484375,111.365234375C80.732421875,110.9815673828125,75.039794921875,111.2158203125,74.4364013671875,111.654541015625C73.415771484375,112.396240234375,72.8990478515625,113.6375732421875,73.4046630859375,114.1324462890625C73.8541259765625,114.572509765625,79.8831787109375,114.46044921875,80.5762939453125,113.999267578125ZM91.4942626953125,113.73876953125C92.0198974609375,113.305908203125,92.5753173828125,112.373046875,92.5753173828125,111.92333984375C92.5753173828125,110.465576171875,85.5238037109375,110.923828125,84.4927978515625,112.448486328125C83.394287109375,114.0733642578125,83.603515625,114.188232421875,87.693603515625,114.2061767578125L90.90966796875,114.22021484375ZM44.530517578125,109.057373046875C45.5186767578125,108.539794921875,45.9215087890625,107.0052490234375,45.126220703125,106.7877197265625C41.7572021484375,105.86572265625,35.693603515625,107.6446533203125,37.1954345703125,109.114501953125C37.3896484375,109.3046875,44.1591796875,109.2518310546875,44.530517578125,109.057373046875ZM55.5472412109375,108.698974609375C56.5234375,107.8052978515625,56.797119140625,106.5889892578125,56.0323486328125,106.5433349609375C50.6058349609375,106.2196044921875,46.5189208984375,107.5535888671875,48.124267578125,109.1248779296875C48.5302734375,109.522216796875,55.0570068359375,109.147705078125,55.5472412109375,108.698974609375ZM66.2501220703125,108.82421875C66.960693359375,108.3680419921875,67.6036376953125,107.03076171875,67.2901611328125,106.6611328125C66.971435546875,106.2852783203125,61.7598876953125,106.25537109375,60.858154296875,106.6241455078125C59.726318359375,107.0869140625,58.720703125,108.6318359375,59.22802734375,109.128173828125C59.535888671875,109.4296875,65.7244873046875,109.16162109375,66.2501220703125,108.8240966796875ZM76.8768310546875,108.9130859375C78.02783203125,108.28076171875,78.542724609375,106.6834716796875,77.69921875,106.3621826171875C75.0426025390625,105.350341796875,69.828857421875,106.810302734375,69.828857421875,108.5660400390625C69.828857421875,109.2503662109375,75.733642578125,109.541015625,76.8768310546875,108.9130859375ZM87.662109375,109.00048828125C88.4677734375,108.731689453125,89.33740234375,107.30029296875,89.00732421875,106.786376953125C88.8017578125,106.466552734375,83.6796875,106.2119140625,82.61572265625,106.46875C81.4921875,106.7398681640625,80.3089599609375,108.4227294921875,80.861572265625,108.9635009765625C81.21240234375,109.306884765625,86.655517578125,109.33642578125,87.662109375,109.00048828125ZM97.6641845703125,109.00048828125C98.365966796875,108.763916015625,99.1263427734375,107.8094482421875,99.1263427734375,107.1650390625C99.1263427734375,106.4566650390625,98.595947265625,106.34814453125,95.448486328125,106.4127197265625L92.533203125,106.47265625L91.8262939453125,107.25244140625C91.1075439453125,108.0455322265625,90.9447021484375,108.6346435546875,91.337890625,109.01953125C91.6328125,109.30810546875,96.797607421875,109.2926025390625,97.6641845703125,109.00048828125ZM107.1318359375,109.0633544921875C108.4866943359375,108.8074951171875,109.4500732421875,107.4046630859375,108.744873046875,106.7144775390625C108.407470703125,106.3841552734375,108.1790771484375,106.36328125,105.469482421875,106.416015625L102.5567626953125,106.47265625L101.830810546875,107.2347412109375C100.747314453125,108.372314453125,100.8653564453125,108.92919921875,102.2198486328125,109.0706787109375C103.799560546875,109.235595703125,106.23828125,109.2320556640625,107.1318359375,109.0633544921875ZM38.2659912109375,94.7734375C37.134765625,93.6663818359375,37.1312255859375,93.619384765625,37.6851806640625,87.059326171875C37.958251953125,83.8267822265625,38.460205078125,77.89599609375,38.80078125,73.8797607421875C39.141357421875,69.863525390625,39.591064453125,64.49365234375,39.7999267578125,61.94677734375C41.3475341796875,43.0853271484375,41.2412109375,43.8697509765625,42.4144287109375,42.6600341796875C43.56787109375,41.4708251953125,40.9212646484375,41.546875,82.5877685546875,41.50390625L120.325927734375,41.465087890625L121.1771240234375,41.8499755859375C122.9698486328125,42.660888671875,123.295166015625,43.739013671875,122.9775390625,47.817138671875C122.1507568359375,58.4332275390625,119.2833251953125,90.9781494140625,119.03369140625,92.5806884765625C118.87255859375,93.614990234375,118.32666015625,94.3753662109375,117.4530029296875,94.78271484375C116.6951904296875,95.1361083984375,116.255615234375,95.14111328125,78.5634765625,95.228759765625C57.5958251953125,95.2777099609375,40.1318359375,95.3719482421875,39.7545166015625,95.438232421875C39.1175537109375,95.5504150390625,39.0111083984375,95.5029296875,38.2659912109375,94.7734375ZM98.1529541015625,86.242919921875C100.09326171875,85.978759765625,100.147705078125,85.93798828125,100.2664794921875,84.6556396484375C100.3848876953125,83.3778076171875,100.482421875,83.2415771484375,101.799560546875,82.5140380859375C103.069580078125,81.8126220703125,103.202880859375,81.80712890625,104.5550537109375,82.4010009765625C105.782470703125,82.940185546875,105.96875,82.910400390625,106.7960205078125,82.0433349609375C107.8824462890625,80.904541015625,108.224853515625,80.205322265625,108.224853515625,79.125732421875L108.224853515625,78.0986328125L107.3150634765625,77.458740234375L106.4051513671875,76.819091796875L106.4051513671875,75.4971923828125L106.4051513671875,74.175537109375L107.396484375,73.2493896484375C107.94189453125,72.7401123046875,108.5560302734375,72.2081298828125,108.7613525390625,72.0673828125C110.70458984375,70.7352294921875,107.4649658203125,67.828857421875,105.0484619140625,68.736328125C104.846923828125,68.8121337890625,104.5185546875,68.5994873046875,104.017578125,68.0687255859375L103.282470703125,67.2900390625L103.4068603515625,65.9102783203125L103.5313720703125,64.53076171875L102.914794921875,63.92724609375C102.4593505859375,63.4813232421875,102.02685546875,63.2686767578125,101.2589111328125,63.1126708984375C99.666015625,62.7890625,99.507568359375,62.8582763671875,98.6759033203125,64.24267578125C97.429443359375,66.3175048828125,95.773193359375,66.25,94.4686279296875,64.0711669921875C93.8492431640625,63.03662109375,93.5625,63.053466796875,91.5560302734375,64.2412109375C89.7647705078125,65.3016357421875,89.81201171875,65.2071533203125,90.10888671875,67.12841796875C90.3193359375,68.490478515625,89.5443115234375,69.3302001953125,88.052734375,69.3558349609375C86.2301025390625,69.387451171875,86.1947021484375,69.4146728515625,85.4439697265625,71.3629150390625C84.6802978515625,73.3448486328125,84.6959228515625,73.48974609375,85.7283935546875,73.99609375C87.8734130859375,75.0477294921875,88.19677734375,76.7421875,86.549072265625,78.2965087890625C84.32373046875,80.39599609375,87.16552734375,84.04443359375,90.072021484375,82.8194580078125C91.5030517578125,82.2161865234375,91.591552734375,82.2010498046875,92.2060546875,82.4522705078125C93.5787353515625,83.013671875,93.920654296875,83.3038330078125,94.07373046875,84.0377197265625C94.1546630859375,84.42626953125,94.3294677734375,84.82421875,94.4620361328125,84.922119140625C94.5946044921875,85.0201416015625,94.8380126953125,85.3558349609375,95.0029296875,85.6683349609375C95.2442626953125,86.1253662109375,95.436279296875,86.25,95.9862060546875,86.3062744140625C96.3621826171875,86.3446044921875,96.6842041015625,86.3896484375,96.7020263671875,86.406005859375C96.7197265625,86.4224853515625,97.3726806640625,86.34912109375,98.1529541015625,86.242919921875ZM95.153564453125,77.87255859375C91.18408203125,75.891845703125,94.656494140625,69.35546875,98.684326171875,71.2261962890625C99.3919677734375,71.554931640625,100.3160400390625,72.8238525390625,100.6004638671875,73.8575439453125C101.372802734375,76.664794921875,97.8851318359375,79.2354736328125,95.153564453125,77.87255859375ZM69.915283203125,81.80712890625C70.4803466796875,81.5968017578125,71.2213134765625,80.8033447265625,71.3663330078125,80.253173828125C71.423583984375,80.0362548828125,71.65380859375,79.6617431640625,71.8779296875,79.4208984375C72.10205078125,79.18017578125,72.4595947265625,78.7559814453125,72.6722412109375,78.478271484375C73.0570068359375,77.97607421875,74.4696044921875,77.3502197265625,75.21435546875,77.351806640625C75.4239501953125,77.352294921875,76.0791015625,77.657470703125,76.670166015625,78.02978515625C77.2611083984375,78.4022216796875,77.836669921875,78.7613525390625,77.94921875,78.8280029296875C78.2056884765625,78.979736328125,80.1064453125,77.789794921875,80.9918212890625,76.9234619140625C81.94921875,75.986328125,81.931640625,75.0574951171875,80.92919921875,73.6126708984375C79.6329345703125,71.7442626953125,80.5640869140625,69.7139892578125,83.0003662109375,69.0965576171875C84.63525390625,68.682373046875,85.0394287109375,68.2030029296875,85.1702880859375,66.523681640625C85.364990234375,64.023681640625,84.881591796875,63.156005859375,83.065185546875,62.7454833984375C80.5465087890625,62.1763916015625,79.7537841796875,60.18994140625,81.2021484375,58.0767822265625C82.4068603515625,56.319091796875,80.790283203125,53.197021484375,78.6300048828125,53.109619140625C77.8033447265625,53.0762939453125,77.6270751953125,53.131591796875,76.81103515625,53.6810302734375C75.312255859375,54.6904296875,73.31787109375,53.988525390625,72.6529541015625,52.2176513671875C71.76904296875,49.8636474609375,71.1043701171875,49.390625,68.68017578125,49.390625C66.833740234375,49.390625,66.6849365234375,49.5072021484375,66.2828369140625,51.26806640625C65.8299560546875,53.251708984375,65.84326171875,53.2364501953125,64.1109619140625,53.7650146484375L62.5631103515625,54.2374267578125L61.444091796875,53.5059814453125C58.5101318359375,51.5885009765625,54.6473388671875,55.0797119140625,56.4539794921875,58.01611328125C57.2283935546875,59.2747802734375,57.228271484375,59.106201171875,56.455322265625,60.608642578125C55.73779296875,62.003173828125,55.6748046875,62.048583984375,53.8743896484375,62.47265625C51.066650390625,63.134033203125,50.846435546875,67.8126220703125,53.589111328125,68.5357666015625C55.58154296875,69.061279296875,55.844970703125,69.2706298828125,56.4337158203125,70.79833984375L56.962158203125,72.16943359375L56.2076416015625,73.3914794921875C55.2249755859375,74.9833984375,55.240966796875,75.3035888671875,56.3699951171875,76.6314697265625C57.94580078125,78.4847412109375,58.9991455078125,78.8104248046875,60.4681396484375,77.8985595703125C61.5037841796875,77.255859375,62.00537109375,77.2249755859375,63.358642578125,77.7205810546875C64.5498046875,78.1566162109375,64.437744140625,78.00927734375,64.916748046875,79.7691650390625C65.444091796875,81.706787109375,67.7064208984375,82.6290283203125,69.915283203125,81.80712890625ZM67.13134765625,71.5714111328125C62.4193115234375,70.0782470703125,60.934326171875,64.220703125,64.490966796875,61.156494140625C66.7904052734375,59.1756591796875,70.0128173828125,59.07177734375,72.575439453125,60.89599609375C78.009521484375,64.76416015625,73.5076904296875,73.5919189453125,67.13134765625,71.5714111328125ZM141.14013671875,102.919677734375C140.8780517578125,102.7750244140625,140.51806640625,102.3563232421875,140.340087890625,101.9893798828125L140.0166015625,101.32211303710938L141.7041015625,92.944091796875C143.7279052734375,82.8955078125,143.805419921875,82.698486328125,145.73193359375,82.696533203125C147.3460693359375,82.6951904296875,147.7652587890625,83.7791748046875,147.200927734375,86.4957275390625C143.886962890625,102.447021484375,143.9454345703125,102.200927734375,143.3428955078125,102.7347412109375C142.8800048828125,103.14453125,141.723388671875,103.24169921875,141.14013671875,102.919677734375ZM143.2996826171875,102.41259765625C143.7950439453125,101.927978515625,147.44970703125,84.9759521484375,147.250244140625,84.0875244140625C146.96533203125,82.81787109375,145.1968994140625,82.4969482421875,144.2430419921875,83.541748046875C143.8477783203125,83.974609375,143.6553955078125,84.640869140625,142.9925537109375,87.8717041015625C140.1986083984375,101.49154663085938,140.1944580078125,101.517333984375,140.7261962890625,102.26025390625C141.3184814453125,103.0880126953125,142.5355224609375,103.1600341796875,143.2996826171875,102.41259765625ZM149.3499755859375,100.616455078125C147.04150390625,99.8787841796875,147.4378662109375,98.134033203125,150.60595703125,95.0877685546875L152.8143310546875,92.964111328125L150.6881103515625,90.90234375C147.6060791015625,87.9136962890625,147.28173828125,87.178466796875,148.5133056640625,85.972900390625C149.8282470703125,84.6859130859375,150.7861328125,85.1090087890625,154.151123046875,88.4630126953125C158.7652587890625,93.0623779296875,158.765869140625,93.0152587890625,154.046142578125,97.6123046875C150.889892578125,100.6865234375,150.449951171875,100.9678955078125,149.3499755859375,100.616455078125ZM151.279296875,99.995361328125C155.2381591796875,97.146484375,157.938232421875,93.3223876953125,157.0174560546875,91.8681640625C154.77783203125,88.3309326171875,150.0845947265625,84.9638671875,148.831787109375,85.9954833984375C147.52734375,87.06982421875,147.832763671875,87.823486328125,150.7525634765625,90.73388671875L153.0576171875,93.0316162109375L150.6580810546875,95.4033203125L148.258544921875,97.7750244140625L148.258544921875,98.679443359375C148.258544921875,100.361328125,149.823486328125,101.0430908203125,151.279296875,99.995361328125ZM136.6339111328125,100.3138427734375C133.5301513671875,99.09814453125,129.408935546875,93.135009765625,130.5372314453125,91.4921875C133.4742431640625,87.2161865234375,138.2276611328125,84.33251953125,139.3553466796875,86.1427001953125C140.161376953125,87.4365234375,139.8143310546875,88.1629638671875,137.111328125,90.8388671875L134.90234375,93.0257568359375L137.107666015625,95.2091064453125C138.40234375,96.4908447265625,139.3648681640625,97.5946044921875,139.4384765625,97.8818359375C139.88330078125,99.61669921875,138.3184814453125,100.9736328125,136.6339111328125,100.3138427734375ZM138.3238525390625,100.125244140625C140.0655517578125,99.3485107421875,139.646484375,97.9256591796875,136.8681640625,95.1826171875L134.6046142578125,92.9476318359375L136.8743896484375,90.758056640625C139.660888671875,88.070068359375,140.1357421875,86.894775390625,138.838623046875,85.896240234375C137.6080322265625,84.9488525390625,136.7601318359375,85.4217529296875,133.042724609375,89.12939453125C129.2366943359375,92.9254150390625,129.23779296875,92.9615478515625,133.2822265625,96.9688720703125C136.61376953125,100.2698974609375,137.190185546875,100.6307373046875,138.3238525390625,100.125244140625ZM133.77734375,74.3543701171875C132.6273193359375,73.649658203125,132.54443359375,71.8751220703125,133.6292724609375,71.179443359375C134.673828125,70.509521484375,149.38818359375,66.6409912109375,150.1171875,66.8446044921875C151.2720947265625,67.1671142578125,151.7783203125,68.663330078125,151.068115234375,69.65576171875C150.2154541015625,70.84716796875,134.8623046875,75.0191650390625,133.77734375,74.3543701171875ZM142.533935546875,72.3614501953125C151.0653076171875,69.97998046875,151.170166015625,69.9329833984375,151.170166015625,68.4888916015625C151.170166015625,66.6282958984375,150.3363037109375,66.643310546875,143.103271484375,68.6337890625C139.883544921875,69.5196533203125,136.4881591796875,70.453369140625,135.557861328125,70.70849609375C133.2158203125,71.3507080078125,132.461181640625,72.5233154296875,133.5321044921875,73.855712890625C134.1456298828125,74.619140625,134.888427734375,74.495849609375,142.533935546875,72.3614501953125ZM133.5390625,63.3609619140625C132.8546142578125,62.7972412109375,132.663330078125,61.960205078125,133.0291748046875,61.1297607421875C133.364501953125,60.3682861328125,145.3895263671875,48.18701171875,146.0474853515625,47.942138671875C147.577880859375,47.3726806640625,149.0576171875,48.9205322265625,148.4105224609375,50.4140625C148.1864013671875,50.9312744140625,139.8829345703125,59.5489501953125,136.740478515625,62.525634765625C135.1630859375,64.02001953125,134.5374755859375,64.1832275390625,133.5390625,63.3609619140625ZM135.444580078125,63.409912109375C135.8646240234375,63.170166015625,142.5499267578125,56.482177734375,146.0294189453125,52.8206787109375C148.5548095703125,50.1634521484375,148.8438720703125,49.4566650390625,147.7987060546875,48.4954833984375C146.9581298828125,47.72265625,146.2489013671875,47.8984375,144.8687744140625,49.221435546875C140.144287109375,53.75048828125,133.3331298828125,60.863037109375,133.1712646484375,61.4368896484375C132.7720947265625,62.8519287109375,134.22021484375,64.1087646484375,135.444580078125,63.409912109375ZM13.144775390625,57.452880859375C11.04638671875,56.9385986328125,10.734619140625,54.1844482421875,12.688232421875,53.4193115234375C13.8897705078125,52.9488525390625,26.657470703125,52.9976806640625,27.7359619140625,53.4769287109375C29.536865234375,54.277099609375,29.501953125,56.591796875,27.6778564453125,57.337890625C27.084228515625,57.5804443359375,14.0858154296875,57.6834716796875,13.144775390625,57.452880859375ZM27.9588623046875,56.9683837890625C29.0003662109375,56.4412841796875,29.1468505859375,54.8475341796875,28.231201171875,54.0052490234375L27.7645263671875,53.5760498046875L20.4615478515625,53.5255126953125C12.5767822265625,53.4710693359375,12.337158203125,53.4952392578125,11.8624267578125,54.3936767578125C11.41357421875,55.2431640625,11.525146484375,55.944580078125,12.216796875,56.62158203125L12.83544921875,57.2271728515625L20.1416015625,57.2271728515625C26.174560546875,57.2271728515625,27.5367431640625,57.1820068359375,27.9588623046875,56.9683837890625ZM6.6763916015625,45.51220703125C4.8697509765625,44.629638671875,5.1636962890625,42.33544921875,7.1732177734375,41.634033203125C8.412109375,41.2015380859375,27.3441162109375,41.27197265625,28.0810546875,41.7117919921875C29.77783203125,42.7244873046875,29.3505859375,45.3367919921875,27.4266357421875,45.71337890625C25.9237060546875,46.007568359375,7.3212890625,45.8272705078125,6.6763916015625,45.51220703125ZM28.357421875,44.919189453125C29.0726318359375,44.169921875,29.0948486328125,43.07177734375,28.41064453125,42.2760009765625L27.9359130859375,41.723876953125L17.3863525390625,41.7724609375L6.8367919921875,41.8212890625L6.305908203125,42.40283203125C5.4564208984375,43.33349609375,5.5938720703125,44.6959228515625,6.5938720703125,45.2572021484375C6.855712890625,45.4041748046875,9.88671875,45.463134765625,17.3936767578125,45.4669189453125L27.8294677734375,45.4722900390625ZM112.52392578125,34.1683349609375C110.0794677734375,33.3155517578125,110.132080078125,33.6893310546875,110.1544189453125,17.3321533203125C110.1806640625,-1.92333984375,108.79345703125,0.0587158203125,122.24560546875,0.05712890625L131.080322265625,0.0560302734375L136.05322265625,4.897705078125C142.2371826171875,10.91796875,141.525634765625,8.8199462890625,141.525634765625,21.0341796875C141.525634765625,33.23046875,141.5228271484375,33.245361328125,139.3023681640625,34.1533203125C138.34619140625,34.544189453125,113.64111328125,34.55810546875,112.52392578125,34.1683349609375ZM139.707763671875,33.6729736328125C141.16845703125,32.7000732421875,141.0645751953125,33.607421875,141.1202392578125,21.3272705078125L141.1697998046875,10.3876953125L139.5462646484375,8.650390625C138.6533203125,7.69482421875,136.36865234375,5.4049072265625,134.4693603515625,3.5616455078125L131.015869140625,0.2103271484375L121.9405517578125,0.266845703125L112.8651123046875,0.3232421875L112.091796875,0.7567138671875C110.47119140625,1.665283203125,110.56005859375,0.803466796875,110.4517822265625,16.6756591796875C110.316650390625,36.480712890625,108.1712646484375,34.0643310546875,125.8946533203125,34.0697021484375L139.106201171875,34.07373046875ZM114.48583984375,30.2025146484375C114.1361083984375,29.860107421875,114.0994873046875,4.529541015625,114.4482421875,4.1881103515625C114.679443359375,3.9617919921875,127.5501708984375,3.862548828125,128.1358642578125,4.08251953125C128.381591796875,4.1748046875,128.4237060546875,4.6048583984375,128.4237060546875,7.0269775390625C128.4237060546875,11.6474609375,128.408447265625,11.6328125,133.25,11.6328125C135.70751953125,11.6328125,136.785400390625,11.6951904296875,136.93994140625,11.8465576171875C137.2630615234375,12.162841796875,137.2542724609375,30.07373046875,136.930908203125,30.278564453125C136.489013671875,30.5584716796875,114.7744140625,30.48486328125,114.4859619140625,30.2025146484375ZM132.7769775390625,25.419921875C133.5037841796875,24.8214111328125,133.554931640625,23.833740234375,132.89794921875,23.0858154296875L132.4588623046875,22.5860595703125L126.2186279296875,22.528564453125C122.7864990234375,22.4970703125,119.699462890625,22.5223388671875,119.3585205078125,22.5849609375C117.8670654296875,22.85888671875,117.3255615234375,24.510986328125,118.42919921875,25.419921875L118.9891357421875,25.881103515625L125.6031494140625,25.881103515625L132.2171630859375,25.881103515625ZM132.89794921875,17.81201171875C133.5257568359375,17.0972900390625,133.489501953125,16.207275390625,132.8050537109375,15.537353515625L132.2730712890625,15.0167236328125L125.7166748046875,15.0167236328125C117.9053955078125,15.0167236328125,117.595703125,15.10009765625,117.9791259765625,17.100341796875C118.23291015625,18.4241943359375,118.2030029296875,18.4193115234375,125.7425537109375,18.3624267578125L132.4588623046875,18.3116455078125ZM13.0538330078125,33.947998046875C11.92822265625,33.5452880859375,11.42333984375,32.2855224609375,11.934326171875,31.15478515625C12.5797119140625,29.7269287109375,11.864501953125,29.79931640625,25.31396484375,29.79931640625L37.2281494140625,29.79931640625L37.764404296875,30.240966796875C38.92724609375,31.19873046875,38.9361572265625,32.6671142578125,37.78466796875,33.615478515625L37.2281494140625,34.07373046875L25.2774658203125,34.059814453125C18.70458984375,34.052001953125,13.2039794921875,34.001708984375,13.0538330078125,33.947998046875ZM37.1357421875,33.728515625C38.658203125,33.161865234375,38.83154296875,31.217529296875,37.4429931640625,30.2808837890625C36.8099365234375,29.853759765625,13.9102783203125,29.8111572265625,13.0718994140625,30.2354736328125C11.60302734375,30.9788818359375,11.6356201171875,33.1324462890625,13.12451171875,33.7210693359375C13.6575927734375,33.931884765625,36.570068359375,33.93896484375,37.1357421875,33.728515625Z" style="fill: rgb(251, 235, 199);"/></g></g><g id="shape-b824000b-6e5a-8058-8006-c4c41e91593f"><g class="fills" id="fills-b824000b-6e5a-8058-8006-c4c41e91593f"><path d="M79.200439453125,134.5225830078125C61.3729248046875,134.434814453125,61.159912109375,134.429931640625,72.103515625,134.3585205078125C78.3087158203125,134.3179931640625,83.549560546875,134.269775390625,83.749755859375,134.25146484375C83.9498291015625,134.2330322265625,84.8096923828125,134.19873046875,85.660400390625,134.1751708984375C86.65966796875,134.1473388671875,87.046142578125,134.08642578125,86.752197265625,134.003173828125L86.29736328125,133.874267578125L86.7069091796875,133.7418212890625C86.9322509765625,133.6689453125,87.193359375,133.46875,87.2872314453125,133.2972412109375C87.3809814453125,133.12548828125,87.78125,132.880615234375,88.176513671875,132.7530517578125C88.5716552734375,132.625244140625,89.1278076171875,132.3392333984375,89.412353515625,132.1171875L89.9295654296875,131.713623046875L89.2052001953125,131.516845703125C88.806884765625,131.4085693359375,87.93505859375,131.319580078125,87.267822265625,131.3189697265625C86.6005859375,131.3184814453125,86.02734375,131.240478515625,85.9940185546875,131.1458740234375C85.89306640625,130.859130859375,76.456787109375,130.7476806640625,39.8946533203125,130.6016845703125L5.1380615234375,130.4630126953125L49.0841064453125,130.48974609375C91.163330078125,130.515380859375,93.07666015625,130.502685546875,94.1220703125,130.191162109375C95.64697265625,129.73681640625,97.6424560546875,128.65380859375,99.3787841796875,127.3380126953125C103.883056640625,123.9249267578125,108.0262451171875,120.70703125,109.95361328125,119.12451171875C115.3409423828125,114.7010498046875,118.6522216796875,112.3895263671875,119.9854736328125,112.12158203125C121.39990234375,111.8372802734375,151.89794921875,112.3106689453125,151.89794921875,112.616943359375C151.89794921875,112.683349609375,151.099609375,113.4207763671875,150.123779296875,114.2554931640625C149.14794921875,115.0902099609375,147.28076171875,116.72607421875,145.974365234375,117.890869140625C144.6680908203125,119.0555419921875,141.802001953125,121.4874267578125,139.6053466796875,123.295166015625C133.687255859375,128.165771484375,131.1209716796875,130.316650390625,128.88525390625,132.2803955078125C127.7806396484375,133.25048828125,126.6312255859375,134.1949462890625,126.3310546875,134.3790283203125C125.7274169921875,134.7491455078125,125.47509765625,134.75,79.200439453125,134.5225830078125ZM95.9862060546875,86.3062744140625C95.436279296875,86.2498779296875,95.2442626953125,86.1253662109375,95.0029296875,85.6683349609375C94.8380126953125,85.3558349609375,94.5946044921875,85.0201416015625,94.4620361328125,84.922119140625C94.3294677734375,84.82421875,94.1546630859375,84.42626953125,94.07373046875,84.0377197265625C93.920654296875,83.3038330078125,93.5787353515625,83.013671875,92.2060546875,82.4522705078125C91.591552734375,82.2010498046875,91.5030517578125,82.2161865234375,90.072021484375,82.8194580078125C87.16552734375,84.04443359375,84.32373046875,80.39599609375,86.549072265625,78.2965087890625C88.19677734375,76.7421875,87.8734130859375,75.0477294921875,85.7283935546875,73.99609375C84.6959228515625,73.48974609375,84.6802978515625,73.3448486328125,85.4439697265625,71.3629150390625C86.1947021484375,69.4146728515625,86.2301025390625,69.387451171875,88.052734375,69.3558349609375C89.5443115234375,69.3302001953125,90.3193359375,68.490478515625,90.10888671875,67.12841796875C89.81201171875,65.2071533203125,89.7647705078125,65.3016357421875,91.5560302734375,64.2412109375C93.5625,63.053466796875,93.8492431640625,63.03662109375,94.4686279296875,64.0711669921875C95.773193359375,66.25,97.429443359375,66.3175048828125,98.6759033203125,64.24267578125C99.507568359375,62.8582763671875,99.666015625,62.7890625,101.2589111328125,63.1126708984375C102.02685546875,63.2686767578125,102.4593505859375,63.4813232421875,102.914794921875,63.92724609375L103.5313720703125,64.53076171875L103.4068603515625,65.9102783203125L103.282470703125,67.2900390625L104.017578125,68.0687255859375C104.5185546875,68.5994873046875,104.846923828125,68.8121337890625,105.0484619140625,68.736328125C107.4649658203125,67.828857421875,110.70458984375,70.7352294921875,108.7613525390625,72.0673828125C108.5560302734375,72.2081298828125,107.94189453125,72.7401123046875,107.396484375,73.2493896484375L106.4051513671875,74.175537109375L106.4051513671875,75.4971923828125L106.4051513671875,76.819091796875L107.3150634765625,77.458740234375L108.224853515625,78.0986328125L108.224853515625,79.125732421875C108.224853515625,80.205322265625,107.8824462890625,80.904541015625,106.7960205078125,82.0433349609375C105.96875,82.910400390625,105.782470703125,82.940185546875,104.5550537109375,82.4010009765625C103.202880859375,81.80712890625,103.069580078125,81.8126220703125,101.799560546875,82.5140380859375C100.482421875,83.2415771484375,100.3848876953125,83.3778076171875,100.2664794921875,84.6556396484375C100.1973876953125,85.4012451171875,100.0736083984375,85.786865234375,99.868896484375,85.89404296875C99.609619140625,86.02978515625,96.788330078125,86.4859619140625,96.7020263671875,86.406005859375C96.6842041015625,86.3895263671875,96.3621826171875,86.3446044921875,95.9862060546875,86.3062744140625ZM98.85205078125,85.839111328125L99.7607421875,85.632568359375L99.9661865234375,84.56494140625C100.262939453125,83.023193359375,100.30419921875,82.9674072265625,101.6685791015625,82.2657470703125C103.0992431640625,81.5299072265625,103.4267578125,81.4957275390625,104.3990478515625,81.9813232421875C105.9237060546875,82.742431640625,107.6959228515625,81.4305419921875,107.8250732421875,79.445068359375L107.897705078125,78.329345703125L106.969482421875,77.5633544921875L106.041259765625,76.7972412109375L106.041259765625,75.47802734375C106.041259765625,74.1669921875,106.0460205078125,74.1533203125,106.860107421875,73.25634765625C107.3104248046875,72.760009765625,107.678955078125,72.2811279296875,107.678955078125,72.1920166015625C107.678955078125,72.1026611328125,107.924560546875,71.8878173828125,108.224853515625,71.7142333984375C108.9390869140625,71.30126953125,108.9359130859375,70.7313232421875,108.212890625,69.615478515625L107.655029296875,68.7545166015625L106.0478515625,68.873291015625L104.440673828125,68.9920654296875L103.7784423828125,68.23486328125C102.976318359375,67.317626953125,102.8614501953125,66.9273681640625,103.0877685546875,65.8887939453125C103.655029296875,63.2855224609375,100.1864013671875,62.209716796875,98.8486328125,64.5738525390625L98.117919921875,65.8651123046875L96.8848876953125,65.91796875C95.445556640625,65.979736328125,94.422607421875,65.3890380859375,94.0032958984375,64.2540283203125C93.709716796875,63.459228515625,93.5408935546875,63.4754638671875,91.7265625,64.47216796875C90.0614013671875,65.386962890625,90.0611572265625,65.3873291015625,90.3828125,67.0189208984375C90.6983642578125,68.620361328125,89.596923828125,69.6943359375,87.638916015625,69.6943359375L86.3697509765625,69.6943359375L86.08642578125,70.3580322265625C85.9306640625,70.7230224609375,85.7366943359375,71.4815673828125,85.655517578125,72.0435791015625C85.5743408203125,72.605712890625,85.4603271484375,73.1409912109375,85.402099609375,73.233154296875C85.343994140625,73.3253173828125,85.65625,73.6070556640625,86.0960693359375,73.859375C88.1083984375,75.013427734375,88.442138671875,76.7744140625,86.9439697265625,78.3323974609375C85.7025146484375,79.623291015625,85.788818359375,80.28857421875,87.4290771484375,82.0760498046875L88.37890625,83.111083984375L89.06689453125,82.8284912109375C89.4451904296875,82.673095703125,90.183349609375,82.4039306640625,90.7071533203125,82.23046875L91.6595458984375,81.9151611328125L92.7740478515625,82.4365234375C93.9310302734375,82.977783203125,94.39501953125,83.42626953125,94.39501953125,84.003173828125C94.39501953125,85.424560546875,96.62841796875,86.344482421875,98.8521728515625,85.839111328125ZM94.9630126953125,78.03515625C92.739501953125,76.9578857421875,92.4771728515625,74.4534912109375,94.3424072265625,72.1103515625C97.201416015625,68.5186767578125,102.654541015625,72.4676513671875,100.4747314453125,76.5513916015625C99.626708984375,78.139892578125,96.7679443359375,78.909423828125,94.9630126953125,78.03515625ZM98.961669921875,77.593505859375C102.7420654296875,75.5797119140625,99.760986328125,69.560546875,95.787841796875,71.185302734375C94.5361328125,71.697265625,93.1956787109375,73.980224609375,93.3516845703125,75.33447265625C93.641845703125,77.8546142578125,96.3924560546875,78.962158203125,98.961669921875,77.593505859375ZM66.826416015625,81.7720947265625C65.4547119140625,81.560546875,65.384033203125,81.4864501953125,64.9166259765625,79.7691650390625C64.437744140625,78.00927734375,64.5496826171875,78.1566162109375,63.358642578125,77.7205810546875C62.0052490234375,77.2249755859375,61.503662109375,77.255859375,60.4681396484375,77.8985595703125C57.77587890625,79.5697021484375,54.5198974609375,76.1253662109375,56.2076416015625,73.3914794921875L56.9620361328125,72.16943359375L56.43359375,70.79833984375C55.8448486328125,69.2706298828125,55.58154296875,69.061279296875,53.5889892578125,68.5357666015625C50.8463134765625,67.8126220703125,51.0665283203125,63.134033203125,53.8743896484375,62.47265625C55.6746826171875,62.048583984375,55.73779296875,62.003173828125,56.455322265625,60.608642578125C57.228271484375,59.106201171875,57.2283935546875,59.2747802734375,56.4539794921875,58.01611328125C54.6473388671875,55.0797119140625,58.510009765625,51.5885009765625,61.4439697265625,53.5059814453125L62.5631103515625,54.2374267578125L64.1109619140625,53.7650146484375C65.8431396484375,53.2364501953125,65.8299560546875,53.251708984375,66.2828369140625,51.26806640625C66.684814453125,49.5072021484375,66.8336181640625,49.390625,68.68017578125,49.390625C71.104248046875,49.390625,71.76904296875,49.8636474609375,72.6529541015625,52.2176513671875C73.31787109375,53.988525390625,75.3121337890625,54.6904296875,76.81103515625,53.6810302734375C79.483642578125,51.88134765625,83.021240234375,55.422607421875,81.2021484375,58.0767822265625C79.7537841796875,60.18994140625,80.5465087890625,62.1763916015625,83.065185546875,62.7454833984375C86.208984375,63.4560546875,86.15966796875,68.2960205078125,83.0003662109375,69.0965576171875C80.56396484375,69.7139892578125,79.6328125,71.7442626953125,80.92919921875,73.6126708984375C81.931640625,75.0574951171875,81.94921875,75.986328125,80.99169921875,76.9234619140625C80.1064453125,77.789794921875,78.20556640625,78.979736328125,77.94921875,78.8280029296875C77.836669921875,78.7613525390625,77.2611083984375,78.4022216796875,76.6700439453125,78.02978515625C76.0791015625,77.657470703125,75.4239501953125,77.352294921875,75.21435546875,77.351806640625C74.469482421875,77.3499755859375,73.056884765625,77.97607421875,72.6722412109375,78.478271484375C72.45947265625,78.7559814453125,72.10205078125,79.18017578125,71.8779296875,79.4208984375C71.6536865234375,79.6617431640625,71.423583984375,80.0362548828125,71.3663330078125,80.253173828125C70.972900390625,81.7459716796875,69.611083984375,82.2015380859375,66.8262939453125,81.7720947265625ZM69.905029296875,81.5191650390625C70.0633544921875,81.4595947265625,70.19287109375,81.298828125,70.19287109375,81.1617431640625C70.19287109375,81.024658203125,70.3975830078125,80.73828125,70.6478271484375,80.525390625C70.89794921875,80.3125,71.1026611328125,80.06298828125,71.1026611328125,79.97119140625C71.1026611328125,79.87939453125,71.327880859375,79.539794921875,71.6031494140625,79.2166748046875C71.8782958984375,78.893310546875,72.240234375,78.4356689453125,72.4071044921875,78.1993408203125C72.718994140625,77.7578125,74.466796875,76.99658203125,75.167724609375,76.9967041015625C75.384033203125,76.996826171875,76.09326171875,77.3173828125,76.7437744140625,77.708984375C78.16748046875,78.566162109375,78.2899169921875,78.57373046875,79.3095703125,77.86474609375C81.6029052734375,76.2706298828125,81.843994140625,75.466796875,80.565185546875,73.6800537109375C79.7060546875,72.4794921875,79.6947021484375,72.356689453125,80.3092041015625,70.8922119140625C80.8570556640625,69.5863037109375,81.45849609375,69.0960693359375,82.8779296875,68.7982177734375C84.34765625,68.48974609375,84.779296875,68.068603515625,84.6678466796875,67.05126953125C84.617919921875,66.5947265625,84.5272216796875,65.6004638671875,84.46630859375,64.841552734375L84.355712890625,63.4619140625L83.3248291015625,63.174560546875C80.3165283203125,62.336181640625,79.2685546875,60.2943115234375,80.7698974609375,58.196533203125C82.587646484375,55.6568603515625,79.5499267578125,52.2188720703125,77.00341796875,53.933837890625C75.2532958984375,55.112548828125,73.132568359375,54.4097900390625,72.4185791015625,52.41455078125C71.928955078125,51.0462646484375,70.719970703125,49.7620849609375,69.885009765625,49.7230224609375C68.8587646484375,49.6748046875,67.7347412109375,49.7867431640625,67.675537109375,49.94287109375C67.6422119140625,50.031005859375,67.46435546875,50.10302734375,67.2802734375,50.10302734375C66.917236328125,50.10302734375,66.650146484375,50.7161865234375,66.4434814453125,52.0238037109375C66.2613525390625,53.1767578125,65.813720703125,53.600341796875,64.31494140625,54.0380859375C62.569091796875,54.5479736328125,62.355224609375,54.529296875,61.3072509765625,53.7763671875C60.0372314453125,52.864013671875,59.1585693359375,52.9854736328125,57.5189208984375,54.300537109375C56.0234375,55.5,55.9432373046875,56.5540771484375,57.1920166015625,58.5960693359375L57.5390625,59.1634521484375L56.8145751953125,60.6180419921875C56.007080078125,62.2392578125,55.7713623046875,62.4208984375,54.0438232421875,62.753662109375C52.3505859375,63.0797119140625,52.27978515625,63.1656494140625,52.2032470703125,64.9893798828125C52.095947265625,67.5440673828125,52.24755859375,67.8140869140625,54.098876953125,68.36669921875C55.92724609375,68.91259765625,56.1134033203125,69.082275390625,56.788330078125,70.81787109375C57.3607177734375,72.289794921875,57.3524169921875,72.33837890625,56.2698974609375,73.8997802734375C55.6304931640625,74.822021484375,55.689697265625,75.3685302734375,56.54248046875,76.4169921875C57.9041748046875,78.0908203125,58.8973388671875,78.3575439453125,60.57861328125,77.501220703125C62.4215087890625,76.5625,64.551513671875,77.2510986328125,65.0096435546875,78.933837890625C65.6903076171875,81.4337158203125,65.6353759765625,81.3485107421875,66.6444091796875,81.4656982421875C67.957275390625,81.6180419921875,69.5711669921875,81.64453125,69.905029296875,81.5191650390625ZM68.3731689453125,72.2330322265625C65.3033447265625,71.8465576171875,63.3475341796875,70.1187744140625,62.5225830078125,67.0653076171875C60.513671875,59.6279296875,71.2845458984375,56.1156005859375,74.7821044921875,63.067626953125C76.8089599609375,67.0966796875,72.8253173828125,72.793701171875,68.3731689453125,72.2330322265625ZM70.2061767578125,71.6632080078125C75.4185791015625,70.0753173828125,76.7799072265625,63.888916015625,72.575439453125,60.89599609375C69.2711181640625,58.5438232421875,64.8726806640625,59.502685546875,63.1075439453125,62.9600830078125C61.918212890625,65.28955078125,62.951904296875,69.3052978515625,65.098876953125,70.6959228515625C66.7867431640625,71.7890625,68.640380859375,72.14013671875,70.2061767578125,71.6632080078125Z" style="fill: rgb(222, 118, 79);"/></g></g><g id="shape-b824000b-6e5a-8058-8006-c4c41e91d052"><g class="fills" id="fills-b824000b-6e5a-8058-8006-c4c41e91d052"><path d="M96.1077880859375,85.8436279296875C95.4349365234375,85.59326171875,94.39501953125,84.4759521484375,94.39501953125,84.003173828125C94.39501953125,83.42626953125,93.9310302734375,82.977783203125,92.7740478515625,82.4366455078125L91.6595458984375,81.9151611328125L90.7071533203125,82.2305908203125C90.183349609375,82.404052734375,89.4451904296875,82.6732177734375,89.06689453125,82.8284912109375L88.37890625,83.111083984375L87.4290771484375,82.0760498046875C85.788818359375,80.28857421875,85.7025146484375,79.623291015625,86.9439697265625,78.3323974609375C88.442138671875,76.7744140625,88.1082763671875,75.013427734375,86.0960693359375,73.859375C85.65625,73.6070556640625,85.343994140625,73.3253173828125,85.402099609375,73.233154296875C85.4603271484375,73.14111328125,85.5743408203125,72.6058349609375,85.655517578125,72.043701171875C85.7366943359375,71.4815673828125,85.9305419921875,70.7230224609375,86.08642578125,70.3580322265625L86.3697509765625,69.6943359375L87.6387939453125,69.6943359375C89.596923828125,69.6943359375,90.6983642578125,68.620361328125,90.3828125,67.01904296875C90.0611572265625,65.3873291015625,90.0614013671875,65.386962890625,91.7265625,64.47216796875C93.5408935546875,63.4754638671875,93.709716796875,63.459228515625,94.0032958984375,64.2540283203125C94.422607421875,65.3890380859375,95.4454345703125,65.979736328125,96.8848876953125,65.91796875L98.117919921875,65.8651123046875L98.8486328125,64.5738525390625C100.1864013671875,62.209716796875,103.655029296875,63.2855224609375,103.0877685546875,65.8887939453125C102.8614501953125,66.9273681640625,102.976318359375,67.317626953125,103.7784423828125,68.23486328125L104.440673828125,68.9920654296875L106.0478515625,68.873291015625L107.655029296875,68.7545166015625L108.212890625,69.615478515625C108.9359130859375,70.7313232421875,108.9390869140625,71.30126953125,108.224853515625,71.7142333984375C107.924560546875,71.8878173828125,107.678955078125,72.102783203125,107.678955078125,72.1920166015625C107.678955078125,72.2811279296875,107.3104248046875,72.760009765625,106.860107421875,73.2564697265625C106.0462646484375,74.1533203125,106.0411376953125,74.1669921875,106.0411376953125,75.4781494140625L106.0411376953125,76.7972412109375L106.969482421875,77.5633544921875L107.897705078125,78.329345703125L107.8250732421875,79.445068359375C107.6959228515625,81.4305419921875,105.923583984375,82.7425537109375,104.3990478515625,81.9813232421875C103.4267578125,81.4957275390625,103.0992431640625,81.5299072265625,101.6685791015625,82.2657470703125C100.30419921875,82.9674072265625,100.262939453125,83.023193359375,99.9661865234375,84.56494140625L99.7607421875,85.632568359375L98.85205078125,85.839111328125C97.684814453125,86.1044921875,96.8125,86.10595703125,96.1077880859375,85.84375ZM98.95751953125,77.842529296875C102.4189453125,76.080322265625,101.110595703125,70.762939453125,97.215576171875,70.762939453125C95.3375244140625,70.762939453125,94.1409912109375,71.729248046875,93.30224609375,73.9232177734375C92.087158203125,77.1016845703125,95.6131591796875,79.5452880859375,98.95751953125,77.842529296875ZM66.6444091796875,81.4656982421875C65.6353759765625,81.3485107421875,65.6903076171875,81.4337158203125,65.0096435546875,78.933837890625C64.551513671875,77.2510986328125,62.4215087890625,76.5625,60.57861328125,77.501220703125C58.8973388671875,78.3575439453125,57.9041748046875,78.0908203125,56.54248046875,76.4169921875C55.689697265625,75.3685302734375,55.6304931640625,74.822021484375,56.2698974609375,73.8997802734375C57.3524169921875,72.33837890625,57.3607177734375,72.289794921875,56.788330078125,70.81787109375C56.1134033203125,69.082275390625,55.92724609375,68.91259765625,54.098876953125,68.36669921875C52.24755859375,67.8140869140625,52.095947265625,67.5440673828125,52.2032470703125,64.9893798828125C52.27978515625,63.1656494140625,52.3505859375,63.0797119140625,54.0438232421875,62.753662109375C55.7713623046875,62.4208984375,56.007080078125,62.2392578125,56.8145751953125,60.6180419921875L57.5390625,59.1634521484375L57.1920166015625,58.5960693359375C55.9432373046875,56.5540771484375,56.0234375,55.5,57.5189208984375,54.300537109375C59.1585693359375,52.9854736328125,60.0372314453125,52.864013671875,61.3072509765625,53.7763671875C62.355224609375,54.529296875,62.569091796875,54.5479736328125,64.31494140625,54.0380859375C65.813720703125,53.600341796875,66.2613525390625,53.1767578125,66.4434814453125,52.0238037109375C66.650146484375,50.7161865234375,66.917236328125,50.10302734375,67.2802734375,50.10302734375C67.46435546875,50.10302734375,67.6422119140625,50.031005859375,67.675537109375,49.94287109375C67.7347412109375,49.786865234375,68.8587646484375,49.6749267578125,69.885009765625,49.7230224609375C70.719970703125,49.7620849609375,71.928955078125,51.0462646484375,72.4185791015625,52.41455078125C73.132568359375,54.4097900390625,75.2532958984375,55.112548828125,77.00341796875,53.933837890625C79.5499267578125,52.2188720703125,82.587646484375,55.6568603515625,80.7698974609375,58.196533203125C79.874267578125,59.4478759765625,79.852294921875,59.7724609375,80.564453125,61.23291015625C81.1575927734375,62.4493408203125,81.443115234375,62.650146484375,83.3248291015625,63.174560546875L84.355712890625,63.4619140625L84.46630859375,64.841552734375C84.5272216796875,65.6004638671875,84.617919921875,66.5947265625,84.6678466796875,67.05126953125C84.779296875,68.068603515625,84.34765625,68.48974609375,82.8779296875,68.7982177734375C81.45849609375,69.0960693359375,80.8570556640625,69.5863037109375,80.3092041015625,70.8922119140625C79.6947021484375,72.356689453125,79.7060546875,72.4794921875,80.565185546875,73.6800537109375C82.4580078125,76.32470703125,79.545166015625,79.3958740234375,76.7437744140625,77.708984375C76.09326171875,77.3173828125,75.384033203125,76.996826171875,75.167724609375,76.9967041015625C74.466796875,76.99658203125,72.718994140625,77.7578125,72.4071044921875,78.1993408203125C72.240234375,78.4356689453125,71.8782958984375,78.893310546875,71.6031494140625,79.2166748046875C71.327880859375,79.539794921875,71.1026611328125,79.87939453125,71.1026611328125,79.97119140625C71.1026611328125,80.06298828125,70.89794921875,80.3125,70.6478271484375,80.525390625C70.3975830078125,80.73828125,70.19287109375,81.024658203125,70.19287109375,81.1617431640625C70.19287109375,81.63037109375,68.9676513671875,81.7352294921875,66.6444091796875,81.4656982421875ZM72.0264892578125,71.199951171875C75.0357666015625,69.4107666015625,76.2178955078125,65.9217529296875,74.7821044921875,63.067626953125C71.2845458984375,56.1156005859375,60.513671875,59.6279296875,62.5225830078125,67.0653076171875C63.2470703125,69.7471923828125,64.2650146484375,70.909423828125,66.597412109375,71.718017578125C68.7635498046875,72.46875,70.1080322265625,72.340576171875,72.0264892578125,71.199951171875Z" style="fill: rgb(224, 95, 46);"/></g></g><g id="shape-b824000b-6e5a-8058-8006-c4c41e92605d"><g class="fills" id="fills-b824000b-6e5a-8058-8006-c4c41e92605d"><path d="M118.53466796875,159.4345703125C117.743896484375,158.9847412109375,117.6873779296875,158.4285888671875,117.6873779296875,151.093017578125L117.6873779296875,144.141357421875L59.5474853515625,144.141357421875C2.206298828125,144.141357421875,1.40283203125,144.1365966796875,1.0538330078125,143.795166015625C0.536376953125,143.28857421875,0.468505859375,142.6429443359375,0.53173828125,138.8270263671875L0.5888671875,135.3828125L1.1328125,134.925048828125L1.6768798828125,134.467529296875L63.7520751953125,134.570556640625C122.760986328125,134.668701171875,125.8531494140625,134.6583251953125,126.35205078125,134.3607177734375C126.6407470703125,134.1884765625,127.7366943359375,133.2918701171875,128.78759765625,132.3681640625C131.364013671875,130.1036376953125,133.86474609375,128.00341796875,137.88623046875,124.7269287109375C141.5263671875,121.760986328125,144.362548828125,119.3538818359375,146.8028564453125,117.1593017578125C147.653564453125,116.3941650390625,149.14794921875,115.08642578125,150.123779296875,114.2529296875C151.099609375,113.419677734375,151.89794921875,112.6834716796875,151.89794921875,112.616943359375C151.89794921875,112.311279296875,121.386962890625,111.8363037109375,119.9854736328125,112.1202392578125C118.6512451171875,112.390380859375,115.335693359375,114.705322265625,109.95361328125,119.12451171875C107.733642578125,120.9471435546875,102.185546875,125.24462890625,99.222412109375,127.436279296875C97.4014892578125,128.783203125,95.713623046875,129.7039794921875,94.2130126953125,130.1690673828125C92.794677734375,130.608642578125,86.74755859375,130.644287109375,41.80029296875,130.4776611328125L4.2181396484375,130.33837890625L3.3150634765625,129.8834228515625C1.5185546875,128.9783935546875,0.7342529296875,127.3612060546875,0.55419921875,124.190185546875C0.3553466796875,120.69091796875,0.8551025390625,119.87744140625,4.4342041015625,117.8736572265625C7.211181640625,116.319091796875,20.0458984375,108.932861328125,24.8819580078125,106.1063232421875C30.1751708984375,103.0125732421875,35.0206298828125,100.367431640625,35.63720703125,100.2349853515625C36.3580322265625,100.0799560546875,36.30517578125,99.92626953125,35.2845458984375,99.2086181640625C32.0997314453125,96.96923828125,31.6324462890625,95.001220703125,32.336181640625,86.792236328125C32.55029296875,84.2943115234375,33.0496826171875,78.5238037109375,33.4459228515625,73.96875C33.842041015625,69.413818359375,34.453125,62.3609619140625,34.8037109375,58.2957763671875C35.67431640625,48.20068359375,36.127685546875,43.7337646484375,36.367431640625,42.8897705078125C37.15380859375,40.120361328125,39.262451171875,37.9481201171875,42.0330810546875,37.0528564453125C44.0970458984375,36.385986328125,118.726318359375,36.143798828125,121.5350341796875,36.7947998046875C124.679443359375,37.5235595703125,126.8994140625,39.43994140625,127.884765625,42.276123046875C128.4222412109375,43.8231201171875,128.31494140625,47.444580078125,127.4393310546875,57.316162109375C127.0830078125,61.3323974609375,126.627197265625,66.4617919921875,126.4263916015625,68.7147216796875C125.697265625,76.8931884765625,125.1519775390625,83.0745849609375,124.6824951171875,88.4842529296875C124.0775146484375,95.454833984375,123.51123046875,97.20654296875,121.301025390625,98.94482421875C120.4256591796875,99.6334228515625,120.4261474609375,99.6424560546875,121.4071044921875,100.710205078125C122.720703125,102.1402587890625,123.3037109375,105.5465087890625,122.5247802734375,107.239990234375C121.94091796875,108.50927734375,120.7548828125,108.422119140625,139.9423828125,108.520751953125C159.4990234375,108.6212158203125,158.540771484375,108.5494384765625,159.218505859375,109.966064453125C159.470947265625,110.49365234375,159.6959228515625,115.78857421875,159.5634765625,118.087646484375C159.5184326171875,118.8709716796875,160.1004638671875,118.3677978515625,140.3349609375,134.7066650390625C128.22216796875,144.719482421875,129.538330078125,143.814697265625,126.740478515625,144.0521240234375L125.3302001953125,144.1717529296875L125.3302001953125,151.1083984375C125.3302001953125,158.485595703125,125.274658203125,159.0107421875,124.4476318359375,159.44384765625C123.96435546875,159.697021484375,118.9822998046875,159.6893310546875,118.53466796875,159.4345703125ZM95.911376953125,120.7352294921875C96.468017578125,120.498291015625,100.772705078125,117.007568359375,107.217041015625,111.5670166015625C108.9222412109375,110.12744140625,111.8056640625,107.7332763671875,113.62451171875,106.2469482421875C117.0902099609375,103.4146728515625,117.2794189453125,103.2342529296875,117.0255126953125,103.0047607421875C116.18603515625,102.2457275390625,38.1405029296875,102.8746337890625,36.34619140625,103.65478515625C35.8958740234375,103.8504638671875,33.56201171875,105.1748046875,31.1600341796875,106.597412109375C7.4859619140625,120.618408203125,7.94189453125,120.3388671875,8.26123046875,120.63525390625C8.7127685546875,121.0545654296875,94.929443359375,121.153076171875,95.911376953125,120.7352294921875ZM30.65478515625,114.111572265625C30.158203125,113.62548828125,31.198974609375,112.0589599609375,32.3292236328125,111.5914306640625C33.22607421875,111.2205810546875,38.6710205078125,111.2579345703125,39.0614013671875,111.6378173828125C39.382080078125,111.94970703125,38.9310302734375,113.065673828125,38.2196044921875,113.720458984375C37.766357421875,114.1375732421875,31.036865234375,114.4854736328125,30.65478515625,114.111572265625ZM41.4298095703125,113.939208984375C40.83056640625,113.2325439453125,42.3564453125,111.63427734375,43.896484375,111.3555908203125C44.921142578125,111.1702880859375,49.3006591796875,111.26025390625,49.6539306640625,111.473876953125C50.0938720703125,111.7401123046875,49.428466796875,113.4295654296875,48.68212890625,113.941162109375C48.077392578125,114.355712890625,41.7816162109375,114.3541259765625,41.4298095703125,113.9390869140625ZM52.3480224609375,113.939208984375C52.0556640625,113.594482421875,52.46337890625,112.7498779296875,53.30224609375,111.962646484375L53.83837890625,111.45947265625L57.0865478515625,111.40380859375C60.8848876953125,111.3388671875,60.9625244140625,111.37890625,60.0880126953125,112.951416015625C59.3931884765625,114.200927734375,53.2362060546875,114.9866943359375,52.3480224609375,113.939208984375ZM62.950439453125,114.00634765625C62.6168212890625,113.6798095703125,62.6832275390625,113.3741455078125,63.2689208984375,112.5408935546875C64.0450439453125,111.4368896484375,64.3798828125,111.353759765625,67.830810546875,111.410400390625L70.8297119140625,111.45947265625L70.8876953125,111.953125C71.0987548828125,113.7510986328125,64.447509765625,115.4716796875,62.950439453125,114.00634765625ZM73.5047607421875,114.00634765625C71.8118896484375,112.3494873046875,77.8123779296875,110.41162109375,81.338623046875,111.476318359375C82.0595703125,111.694091796875,81.296875,113.4744873046875,80.2803955078125,113.946533203125C79.5230712890625,114.2982177734375,73.8541259765625,114.3482666015625,73.5047607421875,114.00634765625ZM84.438720703125,113.958984375C83.8275146484375,113.5274658203125,84.564453125,112.03857421875,85.6339111328125,111.5443115234375C86.334228515625,111.2208251953125,91.8436279296875,111.29248046875,92.189453125,111.6297607421875C92.549072265625,111.9803466796875,92.315673828125,112.689208984375,91.5828857421875,113.4718017578125L90.9656982421875,114.1309814453125L87.9036865234375,114.1871337890625C85.326171875,114.2344970703125,84.77783203125,114.1982421875,84.438720703125,113.958984375ZM37.4835205078125,109.1153564453125C35.756591796875,108.4332275390625,39.0504150390625,106.7330322265625,42.0657958984375,106.75C45.37939453125,106.7685546875,45.8658447265625,107.0103759765625,45.0830078125,108.250244140625C44.546142578125,109.1002197265625,39.0343017578125,109.727783203125,37.4835205078125,109.1153564453125ZM48.4017333984375,109.036865234375C47.16357421875,107.7789306640625,49.7298583984375,106.5616455078125,53.6201171875,106.5616455078125C56.657958984375,106.5616455078125,57.217529296875,107.327392578125,55.2281494140625,108.761962890625C54.5960693359375,109.2176513671875,48.8092041015625,109.4508056640625,48.4017333984375,109.036865234375ZM59.217529296875,108.8101806640625C58.941162109375,108.1053466796875,60.459716796875,106.755859375,61.765380859375,106.5457763671875C66.10546875,105.84716796875,68.0704345703125,106.5933837890625,66.5594482421875,108.3662109375L66.048095703125,108.966064453125L62.68505859375,109.021240234375C59.8319091796875,109.0682373046875,59.30615234375,109.0362548828125,59.217529296875,108.8101806640625ZM70.23828125,108.9371337890625C69.58349609375,108.678466796875,70.5830078125,107.0887451171875,71.6676025390625,106.6640625C73.2159423828125,106.0577392578125,78.0181884765625,106.2977294921875,78.0169677734375,106.9814453125C78.01416015625,108.6279296875,72.78466796875,109.9427490234375,70.23828125,108.9371337890625ZM80.9400634765625,108.80078125C80.673828125,108.48681640625,81.0150146484375,107.76416015625,81.744873046875,107.095947265625C82.37744140625,106.5169677734375,88.6549072265625,106.280029296875,88.869384765625,106.8271484375C89.043701171875,107.271728515625,88.3819580078125,108.5157470703125,87.81982421875,108.80029296875C87.092041015625,109.1685791015625,81.2523193359375,109.1689453125,80.9400634765625,108.80078125ZM91.3123779296875,108.80078125C91.046142578125,108.48681640625,91.387451171875,107.76416015625,92.1173095703125,107.095947265625C93.5135498046875,105.817626953125,99.475341796875,106.4405517578125,98.7713623046875,107.7911376953125C98.1441650390625,108.9942626953125,92.1629638671875,109.8038330078125,91.3123779296875,108.80078125ZM101.4307861328125,108.791748046875C101.162841796875,108.529541015625,101.1591796875,108.4442138671875,101.395751953125,107.996337890625C102.4521484375,105.9969482421875,109.6339111328125,105.7264404296875,108.6661376953125,107.7222900390625C108.070556640625,108.950927734375,102.443115234375,109.7825927734375,101.4307861328125,108.791748046875ZM84.563720703125,95.3343505859375L116.6768798828125,95.33447265625L117.467041015625,94.9599609375C119.256591796875,94.1121826171875,118.9874267578125,95.929443359375,121.4073486328125,68.358642578125C123.64501953125,42.864013671875,123.6124267578125,43.8380126953125,122.2747802734375,42.4630126953125C121.0457763671875,41.1998291015625,123.942626953125,41.2825927734375,82.5703125,41.327392578125C41.55078125,41.371826171875,43.7213134765625,41.309814453125,42.428466796875,42.47607421875C41.075439453125,43.69677734375,41.0924072265625,43.5703125,39.3621826171875,65.330810546875C39.1207275390625,68.3675537109375,38.4910888671875,75.8668212890625,37.9630126953125,81.9959716796875C36.90185546875,94.311767578125,36.894775390625,93.62255859375,38.09375,94.903564453125L38.7225341796875,95.5755615234375L45.5865478515625,95.454833984375C49.36181640625,95.388427734375,66.9014892578125,95.334228515625,84.563720703125,95.3343505859375ZM141.227294921875,102.5615234375C140.277587890625,101.9105224609375,140.281494140625,101.8629150390625,141.9725341796875,93.443603515625C144.06298828125,83.0357666015625,144.0572509765625,83.0521240234375,145.65283203125,83.0521240234375C147.400146484375,83.0521240234375,147.4482421875,83.6343994140625,146.1907958984375,89.57373046875C145.654052734375,92.109130859375,144.859375,95.90673828125,144.4246826171875,98.0126953125C143.4613037109375,102.6812744140625,142.791748046875,103.6339111328125,141.227294921875,102.5615234375ZM149.5841064453125,100.3680419921875C147.4278564453125,100.0301513671875,147.8585205078125,98.3211669921875,150.835693359375,95.4013671875L153.257568359375,93.0260009765625L151.0562744140625,90.84423828125C148.1287841796875,87.9425048828125,147.9508056640625,87.648193359375,148.4605712890625,86.5531005859375C149.2593994140625,84.8372802734375,150.6934814453125,85.432861328125,154.1002197265625,88.89453125C158.3209228515625,93.1834716796875,158.3226318359375,93.154296875,153.6053466796875,97.6708984375C151.1400146484375,100.0313720703125,150.4383544921875,100.501953125,149.5841064453125,100.3680419921875ZM136.703369140625,99.9451904296875C134.97509765625,99.0244140625,130.4254150390625,93.9453125,130.4254150390625,92.936767578125C130.4254150390625,91.042236328125,136.82861328125,85.160888671875,138.2965087890625,85.7071533203125C140.193359375,86.412841796875,139.68896484375,87.9437255859375,136.5928955078125,90.8780517578125C134.2066650390625,93.1396484375,134.2269287109375,92.7908935546875,136.3629150390625,94.827880859375C138.479736328125,96.8468017578125,139.1600341796875,97.71728515625,139.1600341796875,98.4073486328125C139.1600341796875,99.77099609375,137.880126953125,100.572265625,136.703369140625,99.9451904296875ZM133.7823486328125,73.9169921875C133.108642578125,73.349853515625,133.0377197265625,72.2235107421875,133.6385498046875,71.6353759765625C134.1517333984375,71.133056640625,149.196044921875,66.9715576171875,149.9415283203125,67.125732421875C151.0445556640625,67.353759765625,151.3607177734375,68.8272705078125,150.4876708984375,69.6712646484375C150.0660400390625,70.0789794921875,148.856201171875,70.47021484375,142.7994384765625,72.1580810546875C134.203125,74.5533447265625,134.4752197265625,74.5003662109375,133.7823486328125,73.9169921875ZM133.6644287109375,62.918212890625C132.497314453125,61.77587890625,132.357177734375,61.967529296875,140.0396728515625,54.199462890625C146.593505859375,47.572509765625,146.8272705078125,47.4154052734375,147.94482421875,48.8848876953125C148.7630615234375,49.96044921875,148.461669921875,50.3297119140625,139.136474609375,59.6761474609375C134.9049072265625,63.917236328125,134.76806640625,63.998291015625,133.6644287109375,62.918212890625ZM12.8780517578125,56.9151611328125C11.421142578125,56.1959228515625,11.3170166015625,54.47021484375,12.68994140625,53.7989501953125C13.552734375,53.3770751953125,26.49072265625,53.3214111328125,27.502685546875,53.7353515625C29.142822265625,54.406005859375,29.1123046875,56.5946044921875,27.4564208984375,57.0447998046875C26.1827392578125,57.3909912109375,13.6156005859375,57.279296875,12.8780517578125,56.9151611328125ZM6.73095703125,45.17529296875C5.5377197265625,44.6075439453125,5.5443115234375,43.0626220703125,6.7435302734375,42.1934814453125C7.248046875,41.8277587890625,7.4368896484375,41.8204345703125,17.4425048828125,41.77099609375L27.6278076171875,41.720703125L28.15625,42.2379150390625C29.1954345703125,43.2550048828125,28.980712890625,44.6939697265625,27.7125244140625,45.212646484375C26.7357177734375,45.612060546875,7.5771484375,45.5780029296875,6.73095703125,45.17529296875ZM112.544921875,33.8192138671875C110.55712890625,33.125,110.5472412109375,33.07470703125,110.4595947265625,23.20947265625C110.2381591796875,-1.7208251953125,109.11376953125,0.5211181640625,121.8726806640625,0.4503173828125L131.062255859375,0.3992919921875L135.810791015625,5.0810546875C138.422607421875,7.656005859375,140.697998046875,10.0250244140625,140.867431640625,10.345703125C141.32861328125,11.2186279296875,141.23828125,31.5501708984375,140.76953125,32.3817138671875C140.3792724609375,33.0740966796875,139.7451171875,33.6455078125,139.1026611328125,33.8837890625C138.279541015625,34.1890869140625,113.430908203125,34.1285400390625,112.544921875,33.8192138671875ZM137.1143798828125,21.042236328125L137.1614990234375,11.661865234375L136.6014404296875,11.5413818359375C136.29345703125,11.4752197265625,135.4764404296875,11.4765625,134.785888671875,11.54443359375C132.6090087890625,11.7584228515625,129.7506103515625,11.4822998046875,129.1806640625,11.0029296875L128.6966552734375,10.595947265625L128.605712890625,7.3297119140625L128.5146484375,4.0634765625L121.4178466796875,4.0634765625L114.3209228515625,4.0634765625L114.27392578125,17.06494140625C114.248046875,24.2156982421875,114.26611328125,30.167236328125,114.314208984375,30.2904052734375C114.38330078125,30.4677734375,116.7647705078125,30.5048828125,125.7344970703125,30.4686279296875L137.0673828125,30.4227294921875ZM120.0543212890625,25.73779296875C118.2060546875,25.653076171875,117.393798828125,24.39990234375,118.399169921875,23.1846923828125L118.7470703125,22.76416015625L125.6031494140625,22.76416015625L132.459228515625,22.76416015625L132.8160400390625,23.195556640625C134.707763671875,25.4820556640625,130.92333984375,26.2359619140625,120.0543212890625,25.73779296875ZM118.428466796875,17.7532958984375C118.2210693359375,17.4952392578125,118.05126953125,17.025146484375,118.05126953125,16.708740234375C118.05126953125,16.392333984375,118.2210693359375,15.9222412109375,118.428466796875,15.6641845703125L118.8056640625,15.19482421875L125.5845947265625,15.19482421875L132.3636474609375,15.19482421875L132.75927734375,15.6070556640625C133.349853515625,16.2222900390625,133.30712890625,17.3671875,132.675537109375,17.8533935546875C132.210205078125,18.211669921875,131.9986572265625,18.22265625,125.5008544921875,18.22265625L118.8056640625,18.22265625ZM12.9268798828125,33.5042724609375C11.85791015625,32.998779296875,11.7965087890625,31.3013916015625,12.818603515625,30.514404296875C13.275390625,30.162841796875,13.529541015625,30.155517578125,25.2457275390625,30.155517578125L37.2064208984375,30.155517578125L37.6898193359375,30.628662109375C38.586669921875,31.50634765625,38.4561767578125,32.9351806640625,37.431884765625,33.4534912109375C36.778076171875,33.7845458984375,13.620849609375,33.83251953125,12.9268798828125,33.5042724609375Z" style="fill: rgb(30, 51, 67);"/></g></g></g></svg>